<?xml version="1.0" encoding="UTF-8"?>
<!DOCTYPE score-partwise PUBLIC "-//Recordare//DTD MusicXML 3.1 Partwise//EN"
        "https://raw.githubusercontent.com/w3c/musicxml/v3.1/schema/partwise.dtd">
 <score-partwise version="3.1">
   <part-list>
     <score-part id="P1">
       <part-name>Bagpipe</part-name>
       <score-instrument id="P1-I1">
         <instrument-name>Bagpipe</instrument-name>
       </score-instrument>
       <midi-device id="P1-I1" port="1"></midi-device>
       <midi-instrument id="P1-I1">
         <midi-channel>1</midi-channel>
         <midi-program>110</midi-program>
         <volume>78.7402</volume>
         <pan>0</pan>
       </midi-instrument>
     </score-part>
   </part-list>
   <part id="P1">
     <measure number="1">
       <attributes>
         <divisions>32</divisions>
         <key>
           <fifths>2</fifths>
         </key>
       </attributes>
       <note>
         <pitch>
           <step>A</step>
           <octave>4</octave>
         </pitch>
         <duration>16</duration>
         <voice>1</voice>
         <type>eighth</type>
         <time-modification>
           <actual-notes>2</actual-notes>
           <normal-notes>3</normal-notes>
         </time-modification>
         <stem>down</stem>
         <notations>
           <tuplet type="start" bracket="yes" show-number="both"/>
         </notations>
       </note>
       <note>
         <pitch>
           <step>B</step>
           <octave>4</octave>
         </pitch>
         <duration>16</duration>
         <voice>1</voice>
         <type>eighth</type>
         <time-modification>
           <actual-notes>2</actual-notes>
           <normal-notes>3</normal-notes>
         </time-modification>
         <stem>down</stem>
         <notations>
           <tuplet type="stop"/>
         </notations>
       </note>
     </measure>
     <measure number="2">
       <note>
         <pitch>
           <step>A</step>
           <octave>4</octave>
         </pitch>
         <duration>16</duration>
         <voice>1</voice>
         <type>eighth</type>
         <time-modification>
           <actual-notes>3</actual-notes>
           <normal-notes>2</normal-notes>
         </time-modification>
         <stem>down</stem>
         <notations>
           <tuplet type="start" bracket="yes" show-number="actual"/>
         </notations>
       </note>
       <note>
         <pitch>
           <step>B</step>
           <octave>4</octave>
         </pitch>
         <duration>16</duration>
         <voice>1</voice>
         <type>eighth</type>
         <time-modification>
           <actual-notes>3</actual-notes>
           <normal-notes>2</normal-notes>
         </time-modification>
         <stem>down</stem>
       </note>
       <note>
         <pitch>
           <step>C</step>
           <alter>1</alter>
           <octave>5</octave>
         </pitch>
         <duration>16</duration>
         <voice>1</voice>
         <type>eighth</type>
         <time-modification>
           <actual-notes>3</actual-notes>
           <normal-notes>2</normal-notes>
         </time-modification>
         <stem>down</stem>
         <notations>
           <tuplet type="stop"/>
         </notations>
       </note>
     </measure>
     <measure number="3">
       <note>
         <pitch>
           <step>A</step>
           <octave>4</octave>
         </pitch>
         <duration>16</duration>
         <voice>1</voice>
         <type>eighth</type>
         <time-modification>
           <actual-notes>4</actual-notes>
           <normal-notes>3</normal-notes>
         </time-modification>
         <stem>down</stem>
         <notations>
           <tuplet type="start" bracket="yes" show-number="both"/>
         </notations>
       </note>
       <note>
         <pitch>
           <step>B</step>
           <octave>4</octave>
         </pitch>
         <duration>16</duration>
         <voice>1</voice>
         <type>eighth</type>
         <time-modification>
           <actual-notes>4</actual-notes>
           <normal-notes>3</normal-notes>
         </time-modification>
         <stem>down</stem>
       </note>
       <note>
         <pitch>
           <step>C</step>
           <alter>1</alter>
           <octave>5</octave>
         </pitch>
         <duration>16</duration>
         <voice>1</voice>
         <type>eighth</type>
         <time-modification>
           <actual-notes>4</actual-notes>
           <normal-notes>3</normal-notes>
         </time-modification>
         <stem>down</stem>
       </note>
       <note>
         <pitch>
           <step>D</step>
           <octave>5</octave>
         </pitch>
         <duration>16</duration>
         <voice>1</voice>
         <type>eighth</type>
         <time-modification>
           <actual-notes>4</actual-notes>
           <normal-notes>3</normal-notes>
         </time-modification>
         <stem>down</stem>
         <notations>
           <tuplet type="stop"/>
         </notations>
       </note>
     </measure>
     <measure number="4">
       <note>
         <pitch>
           <step>A</step>
           <octave>4</octave>
         </pitch>
         <duration>16</duration>
         <voice>1</voice>
         <type>eighth</type>
         <time-modification>
           <actual-notes>4</actual-notes>
           <normal-notes>6</normal-notes>
         </time-modification>
         <stem>down</stem>
         <notations>
           <tuplet type="start" bracket="yes" show-number="both"/>
         </notations>
       </note>
       <note>
         <pitch>
           <step>B</step>
           <octave>4</octave>
         </pitch>
         <duration>16</duration>
         <voice>1</voice>
         <type>eighth</type>
         <time-modification>
           <actual-notes>4</actual-notes>
           <normal-notes>6</normal-notes>
         </time-modification>
         <stem>down</stem>
       </note>
       <note>
         <pitch>
           <step>C</step>
           <alter>1</alter>
           <octave>5</octave>
         </pitch>
         <duration>16</duration>
         <voice>1</voice>
         <type>eighth</type>
         <time-modification>
           <actual-notes>4</actual-notes>
           <normal-notes>6</normal-notes>
         </time-modification>
         <stem>down</stem>
       </note>
       <note>
         <pitch>
           <step>D</step>
           <octave>5</octave>
         </pitch>
         <duration>16</duration>
         <voice>1</voice>
         <type>eighth</type>
         <time-modification>
           <actual-notes>4</actual-notes>
           <normal-notes>6</normal-notes>
         </time-modification>
         <stem>down</stem>
         <notations>
           <tuplet type="stop"/>
         </notations>
       </note>
     </measure>
     <measure number="5">
       <note>
         <pitch>
           <step>A</step>
           <octave>4</octave>
         </pitch>
         <duration>16</duration>
         <voice>1</voice>
         <type>eighth</type>
         <time-modification>
           <actual-notes>5</actual-notes>
           <normal-notes>3</normal-notes>
         </time-modification>
         <stem>down</stem>
         <notations>
           <tuplet type="start" bracket="yes" show-number="both"/>
         </notations>
       </note>
       <note>
         <pitch>
           <step>B</step>
           <octave>4</octave>
         </pitch>
         <duration>16</duration>
         <voice>1</voice>
         <type>eighth</type>
         <time-modification>
           <actual-notes>5</actual-notes>
           <normal-notes>3</normal-notes>
         </time-modification>
         <stem>down</stem>
       </note>
       <note>
         <pitch>
           <step>C</step>
           <alter>1</alter>
           <octave>5</octave>
         </pitch>
         <duration>16</duration>
         <voice>1</voice>
         <type>eighth</type>
         <time-modification>
           <actual-notes>5</actual-notes>
           <normal-notes>3</normal-notes>
         </time-modification>
         <stem>down</stem>
       </note>
       <note>
         <pitch>
           <step>D</step>
           <octave>5</octave>
         </pitch>
         <duration>16</duration>
         <voice>1</voice>
         <type>eighth</type>
         <time-modification>
           <actual-notes>5</actual-notes>
           <normal-notes>3</normal-notes>
         </time-modification>
         <stem>down</stem>
       </note>
       <note>
         <pitch>
           <step>E</step>
           <octave>5</octave>
         </pitch>
         <duration>16</duration>
         <voice>1</voice>
         <type>eighth</type>
         <time-modification>
           <actual-notes>5</actual-notes>
           <normal-notes>3</normal-notes>
         </time-modification>
         <stem>down</stem>
         <notations>
           <tuplet type="stop"/>
         </notations>
       </note>
     </measure>
     <measure number="6">
       <note>
         <pitch>
           <step>A</step>
           <octave>4</octave>
         </pitch>
         <duration>16</duration>
         <voice>1</voice>
         <type>eighth</type>
         <time-modification>
           <actual-notes>5</actual-notes>
           <normal-notes>4</normal-notes>
         </time-modification>
         <stem>down</stem>
         <notations>
           <tuplet type="start" bracket="yes" show-number="both"/>
         </notations>
       </note>
       <note>
         <pitch>
           <step>B</step>
           <octave>4</octave>
         </pitch>
         <duration>16</duration>
         <voice>1</voice>
         <type>eighth</type>
         <time-modification>
           <actual-notes>5</actual-notes>
           <normal-notes>4</normal-notes>
         </time-modification>
         <stem>down</stem>
       </note>
       <note>
         <pitch>
           <step>C</step>
           <alter>1</alter>
           <octave>5</octave>
         </pitch>
         <duration>16</duration>
         <voice>1</voice>
         <type>eighth</type>
         <time-modification>
           <actual-notes>5</actual-notes>
           <normal-notes>4</normal-notes>
         </time-modification>
         <stem>down</stem>
       </note>
       <note>
         <pitch>
           <step>D</step>
           <octave>5</octave>
         </pitch>
         <duration>16</duration>
         <voice>1</voice>
         <type>eighth</type>
         <time-modification>
           <actual-notes>5</actual-notes>
           <normal-notes>4</normal-notes>
         </time-modification>
         <stem>down</stem>
       </note>
       <note>
         <pitch>
           <step>E</step>
           <octave>5</octave>
         </pitch>
         <duration>16</duration>
         <voice>1</voice>
         <type>eighth</type>
         <time-modification>
           <actual-notes>5</actual-notes>
           <normal-notes>4</normal-notes>
         </time-modification>
         <stem>down</stem>
         <notations>
           <tuplet type="stop"/>
         </notations>
       </note>
     </measure>
     <measure number="7">
       <note>
         <pitch>
           <step>A</step>
           <octave>4</octave>
         </pitch>
         <duration>16</duration>
         <voice>1</voice>
         <type>eighth</type>
         <time-modification>
           <actual-notes>6</actual-notes>
           <normal-notes>4</normal-notes>
         </time-modification>
         <stem>down</stem>
         <notations>
           <tuplet type="start" bracket="yes" show-number="both"/>
         </notations>
       </note>
       <note>
         <pitch>
           <step>B</step>
           <octave>4</octave>
         </pitch>
         <duration>16</duration>
         <voice>1</voice>
         <type>eighth</type>
         <time-modification>
           <actual-notes>6</actual-notes>
           <normal-notes>4</normal-notes>
         </time-modification>
         <stem>down</stem>
       </note>
       <note>
         <pitch>
           <step>C</step>
           <alter>1</alter>
           <octave>5</octave>
         </pitch>
         <duration>16</duration>
         <voice>1</voice>
         <type>eighth</type>
         <time-modification>
           <actual-notes>6</actual-notes>
           <normal-notes>4</normal-notes>
         </time-modification>
         <stem>down</stem>
       </note>
       <note>
         <pitch>
           <step>D</step>
           <octave>5</octave>
         </pitch>
         <duration>16</duration>
         <voice>1</voice>
         <type>eighth</type>
         <time-modification>
           <actual-notes>6</actual-notes>
           <normal-notes>4</normal-notes>
         </time-modification>
         <stem>down</stem>
       </note>
       <note>
         <pitch>
           <step>E</step>
           <octave>5</octave>
         </pitch>
         <duration>16</duration>
         <voice>1</voice>
         <type>eighth</type>
         <time-modification>
           <actual-notes>6</actual-notes>
           <normal-notes>4</normal-notes>
         </time-modification>
         <stem>down</stem>
       </note>
       <note>
         <pitch>
           <step>F</step>
           <alter>1</alter>
           <octave>5</octave>
         </pitch>
         <duration>16</duration>
         <voice>1</voice>
         <type>eighth</type>
         <time-modification>
           <actual-notes>6</actual-notes>
           <normal-notes>4</normal-notes>
         </time-modification>
         <stem>down</stem>
         <notations>
           <tuplet type="stop"/>
         </notations>
       </note>
     </measure>
     <measure number="8">
       <note>
         <pitch>
           <step>A</step>
           <octave>4</octave>
         </pitch>
         <duration>16</duration>
         <voice>1</voice>
         <type>eighth</type>
         <time-modification>
           <actual-notes>7</actual-notes>
           <normal-notes>4</normal-notes>
         </time-modification>
         <stem>down</stem>
         <notations>
           <tuplet type="start" bracket="yes" show-number="both"/>
         </notations>
       </note>
       <note>
         <pitch>
           <step>B</step>
           <octave>4</octave>
         </pitch>
         <duration>16</duration>
         <voice>1</voice>
         <type>eighth</type>
         <time-modification>
           <actual-notes>7</actual-notes>
           <normal-notes>4</normal-notes>
         </time-modification>
         <stem>down</stem>
       </note>
       <note>
         <pitch>
           <step>C</step>
           <alter>1</alter>
           <octave>5</octave>
         </pitch>
         <duration>16</duration>
         <voice>1</voice>
         <type>eighth</type>
         <time-modification>
           <actual-notes>7</actual-notes>
           <normal-notes>4</normal-notes>
         </time-modification>
         <stem>down</stem>
       </note>
       <note>
         <pitch>
           <step>D</step>
           <octave>5</octave>
         </pitch>
         <duration>16</duration>
         <voice>1</voice>
         <type>eighth</type>
         <time-modification>
           <actual-notes>7</actual-notes>
           <normal-notes>4</normal-notes>
         </time-modification>
         <stem>down</stem>
       </note>
       <note>
         <pitch>
           <step>E</step>
           <octave>5</octave>
         </pitch>
         <duration>16</duration>
         <voice>1</voice>
         <type>eighth</type>
         <time-modification>
           <actual-notes>7</actual-notes>
           <normal-notes>4</normal-notes>
         </time-modification>
         <stem>down</stem>
       </note>
       <note>
         <pitch>
           <step>F</step>
           <alter>1</alter>
           <octave>5</octave>
         </pitch>
         <duration>16</duration>
         <voice>1</voice>
         <type>eighth</type>
         <time-modification>
           <actual-notes>7</actual-notes>
           <normal-notes>4</normal-notes>
         </time-modification>
         <stem>down</stem>
       </note>
       <note>
         <pitch>
           <step>G</step>
           <octave>5</octave>
         </pitch>
         <duration>16</duration>
         <voice>1</voice>
         <type>eighth</type>
         <time-modification>
           <actual-notes>7</actual-notes>
           <normal-notes>4</normal-notes>
         </time-modification>
         <stem>down</stem>
         <notations>
           <tuplet type="stop"/>
         </notations>
       </note>
     </measure>
     <measure number="9">
       <note>
         <pitch>
           <step>A</step>
           <octave>4</octave>
         </pitch>
         <duration>16</duration>
         <voice>1</voice>
         <type>eighth</type>
         <time-modification>
           <actual-notes>7</actual-notes>
           <normal-notes>6</normal-notes>
         </time-modification>
         <stem>down</stem>
         <notations>
           <tuplet type="start" bracket="yes" show-number="both"/>
         </notations>
       </note>
       <note>
         <pitch>
           <step>B</step>
           <octave>4</octave>
         </pitch>
         <duration>16</duration>
         <voice>1</voice>
         <type>eighth</type>
         <time-modification>
           <actual-notes>7</actual-notes>
           <normal-notes>6</normal-notes>
         </time-modification>
         <stem>down</stem>
       </note>
       <note>
         <pitch>
           <step>C</step>
           <alter>1</alter>
           <octave>5</octave>
         </pitch>
         <duration>16</duration>
         <voice>1</voice>
         <type>eighth</type>
         <time-modification>
           <actual-notes>7</actual-notes>
           <normal-notes>6</normal-notes>
         </time-modification>
         <stem>down</stem>
       </note>
       <note>
         <pitch>
           <step>D</step>
           <octave>5</octave>
         </pitch>
         <duration>16</duration>
         <voice>1</voice>
         <type>eighth</type>
         <time-modification>
           <actual-notes>7</actual-notes>
           <normal-notes>6</normal-notes>
         </time-modification>
         <stem>down</stem>
       </note>
       <note>
         <pitch>
           <step>E</step>
           <octave>5</octave>
         </pitch>
         <duration>16</duration>
         <voice>1</voice>
         <type>eighth</type>
         <time-modification>
           <actual-notes>7</actual-notes>
           <normal-notes>6</normal-notes>
         </time-modification>
         <stem>down</stem>
       </note>
       <note>
         <pitch>
           <step>F</step>
           <alter>1</alter>
           <octave>5</octave>
         </pitch>
         <duration>16</duration>
         <voice>1</voice>
         <type>eighth</type>
         <time-modification>
           <actual-notes>7</actual-notes>
           <normal-notes>6</normal-notes>
         </time-modification>
         <stem>down</stem>
       </note>
       <note>
         <pitch>
           <step>G</step>
           <octave>5</octave>
         </pitch>
         <duration>16</duration>
         <voice>1</voice>
         <type>eighth</type>
         <time-modification>
           <actual-notes>7</actual-notes>
           <normal-notes>6</normal-notes>
         </time-modification>
         <stem>down</stem>
         <notations>
           <tuplet type="stop"/>
         </notations>
       </note>
     </measure>
   </part>
 </score-partwise>